Coordinates
version=1
nRows=14
nColumns=36
inDegrees=yes

Units are S.I. units (second, meters, Newtons, ...)
If the header above contains a line with 'inDegrees', this indicates whether rotational values are in degrees (yes) or radians (no).

endheader
time	pelvis_tilt	pelvis_list	pelvis_rotation	pelvis_tx	pelvis_ty	pelvis_tz	hip_flexion_r	hip_adduction_r	hip_rotation_r	knee_angle_r	knee_angle_r_beta	ankle_angle_r	subtalar_angle_r	mtp_angle_r	hip_flexion_l	hip_adduction_l	hip_rotation_l	knee_angle_l	knee_angle_l_beta	ankle_angle_l	subtalar_angle_l	mtp_angle_l	lumbar_extension	lumbar_bending	lumbar_rotation	arm_flex_r	arm_add_r	arm_rot_r	elbow_flex_r	pro_sup_r	arm_flex_l	arm_add_l	arm_rot_l	elbow_flex_l	pro_sup_l
      1.76000000	    -17.04991248	      2.85852509	    -10.05666962	     -0.17002435	      0.71159306	     -0.59091341	     67.49160929	      4.64924372	      8.77772174	     92.25004448	      1.61006701	     33.17272958	    -15.34618091	     -7.50000000	     73.03370772	     -8.13358919	     -1.68875087	     93.35229260	      1.62930487	     20.41289722	    -25.51884656	     -7.50000000	    -19.74819438	     -2.18428524	      4.20652709	     97.74574981	     -3.85363373	     11.97442000	    112.55471844	    110.82219390	    110.02933475	     -8.30844206	     22.07676018	    107.90941620	    110.10504864
      1.77000000	    -17.33012191	      2.89714645	    -10.48532626	     -0.16613786	      0.72116552	     -0.59048323	     66.59152846	      4.93050627	      9.01249373	     90.47880115	      1.57915298	     32.17305569	    -15.37151223	     -7.49999999	     71.91817361	     -8.44866429	     -1.85569674	     91.73841110	      1.60113732	     19.88294052	    -25.01271995	     -7.49999999	    -18.66662719	     -2.31975640	      4.58806923	    102.96607788	     -4.47664348	     13.51194071	    110.52566497	    110.86846374	    115.55711516	     -7.79192748	     23.07165075	    105.62901833	    109.95896270
      1.78000000	    -17.13312179	      2.88017048	    -10.87702109	     -0.16163139	      0.73302310	     -0.59003084	     64.93310364	      5.16523658	      9.28694883	     88.32020182	      1.54147832	     30.26239875	    -16.52389161	     -7.49999999	     70.00887190	     -8.69036982	     -2.14126692	     89.73226253	      1.56612343	     19.19221437	    -24.62411012	     -7.49999999	    -18.06404257	     -2.48255114	      4.98311462	    107.97361722	     -5.38319968	     15.43438784	    108.15654360	    110.86138347	    120.79935765	     -7.49097300	     24.82692870	    102.69629391	    109.79717540
      1.79000000	    -17.33295569	      2.81038234	    -11.19680186	     -0.15689451	      0.74476356	     -0.58967098	     63.68197514	      5.39996047	      9.45200339	     86.18265014	      1.50417100	     28.74380674	    -16.52924484	     -7.49999999	     68.59059096	     -8.91783871	     -2.22315321	     87.74198005	      1.53138644	     18.20650638	    -24.01600723	     -7.49999999	    -16.83154906	     -2.40326135	      5.39900655	    112.68788919	     -5.96988384	     17.16120724	    104.88937722	    110.66746763	    125.25150914	     -7.04817886	     25.98077678	     99.43309001	    109.51722313
      1.80000000	    -17.42490840	      2.68438694	    -11.45339992	     -0.15168883	      0.75777413	     -0.58921241	     62.16723740	      5.58519831	      9.54916272	     83.79019621	      1.46241480	     26.86502618	    -16.92584152	     -7.49999999	     66.94026974	     -9.16617291	     -2.38869377	     85.54253108	      1.49299882	     16.94861945	    -23.58084803	     -7.49999999	    -15.67584478	     -2.29469452	      5.76919283	    117.14794504	     -6.59729322	     18.97223587	    101.32454715	    110.42602334	    129.47181878	     -6.75715619	     27.55554226	     96.03123642	    109.26434945
      1.81000000	    -17.48808637	      2.51293897	    -11.60356631	     -0.14625481	      0.77183741	     -0.58887225	     60.52007802	      5.76595820	      9.66862908	     81.16009224	      1.41651083	     23.69133755	    -18.79119413	     -7.49999998	     65.21372464	     -9.29876886	     -2.54481127	     83.09474990	      1.45027698	     14.91099254	    -23.92886636	     -7.49999998	    -14.44326911	     -2.13855293	      6.07780782	    121.19938051	     -7.25960881	     20.78953704	     97.60163769	    110.00260221	    133.29799359	     -6.58120939	     29.65660001	     92.45236630	    109.08981579
      1.82000000	    -17.64177390	      2.36877016	    -11.60826153	     -0.14050384	      0.78652507	     -0.58909486	     58.91248909	      5.67745410	      9.79316028	     78.45226329	      1.36925030	     21.73005676	    -18.24615773	     -7.49999998	     63.57814184	     -9.27594234	     -2.67752690	     80.54884775	      1.40584260	     13.22516363	    -23.11299614	     -7.49999998	    -12.76400481	     -1.93944211	      6.44919332	    124.44720505	     -7.88423313	     22.42331632	     93.19157639	    109.62840342	    136.07054673	     -5.86359213	     31.28126308	     88.33124955	    108.72702204
      1.83000000	    -17.45073076	      2.23679866	    -11.53865904	     -0.13457259	      0.80260092	     -0.58963832	     56.85901642	      5.37800247	      9.86159683	     75.50000785	      1.31772372	     19.21486321	    -18.20892872	     -7.49999998	     61.49158535	     -9.11439803	     -2.92864286	     77.75766250	      1.35712723	     11.04600346	    -22.72216553	     -7.49999998	    -11.54514449	     -1.81834811	      6.77077341	    127.90407674	     -8.72738333	     24.91227592	     88.72649988	    109.26660341	    139.08640962	     -5.17433653	     33.60892121	     83.64418458	    108.36304246
      1.84000000	    -17.28237972	      2.08000591	    -11.40516448	     -0.12864734	      0.81946014	     -0.59010697	     54.69319463	      5.17743950	      9.96056644	     72.14188331	      1.25911339	     14.05935132	    -21.39002534	     -7.49999998	     59.38859135	     -8.87036361	     -3.18978260	     74.63858605	      1.30268908	      6.68009642	    -24.94390555	     -7.49999998	    -10.41634997	     -1.65529944	      7.19779933	    131.53426619	     -9.71781658	     28.04763616	     84.62147638	    108.37463496	    142.21641744	     -4.50153482	     36.43356435	     78.82018138	    108.04677772
      1.85000000	    -16.98271519	      1.85315248	    -11.26028568	     -0.12234342	      0.83714496	     -0.59037977	     52.26410059	      4.87264343	      9.94035248	     68.66557629	      1.19844039	     11.26489569	    -21.14593814	     -7.49999997	     57.04196164	     -8.76106180	     -3.42981053	     71.43854196	      1.24683777	      4.18342756	    -24.43045579	     -7.49999997	     -9.29919048	     -1.42960135	      7.48554576	    134.74495036	    -10.33748582	     31.14505135	     79.78267508	    107.88558110	    144.93181628	     -3.76728943	     39.29711018	     73.58272899	    107.73012811
      1.86000000	    -16.71103917	      1.55757449	    -11.07935335	     -0.11572199	      0.85571393	     -0.59071102	     49.70958022	      4.59504437	      9.82215624	     64.77940500	      1.13061390	      6.70822835	    -22.30712252	     -7.49999997	     54.58928977	     -8.68790449	     -3.72683941	     67.84700250	      1.18415358	      0.29632928	    -25.06905047	     -7.49999997	     -8.15820674	     -1.01052953	      7.79014120	    137.77974521	    -10.63759734	     34.46028716	     74.95115624	    106.97789219	    147.32292772	     -3.13899536	     42.34529803	     68.28361052	    107.66513416
      1.87000000	    -16.29550810	      1.31157503	    -10.88316649	     -0.10862555	      0.87540042	     -0.59112872	     46.86316481	      4.12333352	      9.66496038	     60.58542830	      1.05741520	      2.76865355	    -22.12674415	     -7.49999997	     51.74637476	     -8.53812835	     -4.10049109	     63.84283583	      1.11426769	     -3.24936942	    -25.00142076	     -7.49999997	     -7.18323961	     -0.52705697	      8.04598651	    140.69375718	    -10.44560625	     37.82921387	     69.70782960	    107.16163211	    149.46965100	     -2.66856335	     45.50568999	     62.72833389	    108.47168587
      1.88000000	    -15.45092521	      1.20873440	    -10.77995931	     -0.10097789	      0.89680447	     -0.59138979	     43.37719868	      3.38463002	      9.50691524	     55.90237352	      0.97568048	     -1.26561223	    -21.35758551	     -7.49999997	     48.11583993	     -8.27071601	     -4.71340386	     59.29408093	      1.03487694	     -6.88694825	    -24.57034411	     -7.49999997	     -6.65779866	     -0.27054991	      8.13986764	    143.11645626	     -9.85233617	     40.84105523	     64.10780368	    107.61469191	    151.29446319	     -2.03535041	     48.24919086	     57.29447916	    109.34380559
      1.89000000	    -14.33671359	      1.29083344	    -10.63045391	     -0.09278627	      0.91951176	     -0.59188891	     39.47139627	      2.27016609	      9.24621450	     50.78897820	      0.88643489	     -5.95016579	    -20.41669363	     -7.49999997	     43.88835835	     -7.73498978	     -5.53677125	     54.08347611	      0.94393473	    -11.13280450	    -23.93729838	     -7.49999997	     -6.31363301	     -0.18894604	      8.27900789	    145.09792698	     -9.13849209	     43.70394894	     58.67142783	    108.25652340	    152.53980590	     -1.47345260	     50.92962910	     52.21067439	    110.40192501
